<svg width="75" height="75" viewBox="0 0 75 75" fill="none" xmlns="http://www.w3.org/2000/svg">
<path d="M37.4999 0C17.9729 0 2.08667 15.8862 2.08667 35.4132C2.08667 54.9403 17.9729 70.8267 37.4999 70.8267C39.1317 70.8267 40.7673 70.713 42.3759 70.4916C43.9611 73.1864 46.8899 75 50.2359 75C55.2614 75 59.3498 70.9115 59.3498 65.8862L59.315 51.3012C59.315 43.2045 52.7279 36.6173 44.6313 36.6173C36.5347 36.6173 29.9474 43.2045 29.9474 51.3012V55.3462C29.9474 56.1108 30.567 56.7306 31.3318 56.7306H35.5103C37.2251 56.7306 37.9349 56.7306 39.3576 56.6795C39.3587 56.6795 39.3598 56.6795 39.3609 56.6795C39.4346 56.6795 39.7181 56.7627 40.1137 57.1446C40.7367 57.7455 41.1223 58.5776 41.1223 59.0041V65.8862C41.1223 66.5546 41.1967 67.2057 41.3338 67.8337C40.0654 67.9818 38.7817 68.0581 37.5003 68.0581C19.4999 68.0581 4.85581 53.4136 4.85581 35.4133C4.85581 17.413 19.4999 2.7687 37.5002 2.7687C55.5004 2.7687 70.1448 17.4129 70.1448 35.4132C70.1448 41.4223 68.499 47.2947 65.3855 52.3958C64.9872 53.0483 65.1932 53.9004 65.8459 54.2987C66.4982 54.697 67.3504 54.491 67.7487 53.8383C71.1277 48.3028 72.9135 41.9312 72.9135 35.4133C72.9133 15.8862 57.0271 0 37.4999 0ZM34.2179 53.9619H32.716V51.3013C32.716 44.7312 38.061 39.3861 44.6312 39.3861C51.0251 39.3861 56.2569 44.4489 56.5327 50.7762C55.3261 49.8519 53.819 49.3008 52.1851 49.3008H42.4981L39.698 49.3169C39.6787 49.317 39.659 49.3176 39.6397 49.3185C38.3952 49.3783 34.8315 49.5516 34.2179 53.9619ZM39.3615 53.9108C39.3268 53.9108 39.2921 53.9114 39.2577 53.9127C38.377 53.9445 37.7752 53.9558 37.0137 53.9597C37.3459 52.3542 38.3499 52.1546 39.7434 52.0857L42.506 52.0699H52.1851C54.6088 52.0699 56.5806 54.042 56.5806 56.4658V65.8863C56.5806 69.3851 53.7341 72.2314 50.2355 72.2314C46.7369 72.2314 43.8902 69.385 43.8902 65.8863V59.0042C43.8902 57.751 43.1621 56.239 42.0352 55.152C41.1921 54.3382 40.2699 53.9108 39.3615 53.9108Z" fill="#D81D1D"/>
<path d="M36.6125 28.1631L33.9803 25.5309L36.6125 22.8987C37.1527 22.358 37.1527 21.4816 36.612 20.9408C36.0712 20.4004 35.1948 20.4004 34.6541 20.9408L32.022 23.573L29.3898 20.9408C28.849 20.4004 27.9725 20.4004 27.4319 20.9408C26.8912 21.4816 26.8912 22.358 27.4319 22.8987L30.0641 25.5309L27.4319 28.1631C26.8912 28.7039 26.8912 29.5803 27.4319 30.121C27.7023 30.3913 28.0566 30.5263 28.4108 30.5263C28.765 30.5263 29.1194 30.3913 29.3898 30.121L32.022 27.4888L34.6541 30.121C34.9245 30.3913 35.2789 30.5263 35.6331 30.5263C35.9873 30.5263 36.3416 30.3913 36.612 30.121C37.1532 29.5802 37.1532 28.7037 36.6125 28.1631Z" fill="#D81D1D"/>
<path d="M62.8227 28.1631L60.1906 25.5309L62.8227 22.8987C63.3634 22.3579 63.3634 21.4815 62.8227 20.9408C62.2819 20.4003 61.4055 20.4003 60.8648 20.9408L58.2327 23.573L55.6005 20.9408C55.0597 20.4003 54.1832 20.4003 53.6426 20.9408C53.1019 21.4816 53.1019 22.358 53.6426 22.8987L56.2747 25.5309L53.6426 28.1631C53.1019 28.7039 53.1019 29.5803 53.6426 30.121C53.913 30.3912 54.2673 30.5263 54.6215 30.5263C54.9757 30.5263 55.3301 30.3912 55.6005 30.121L58.2327 27.4888L60.8648 30.121C61.1352 30.3912 61.4896 30.5263 61.8438 30.5263C62.198 30.5263 62.5523 30.3912 62.8227 30.121C63.3633 29.5803 63.3633 28.7039 62.8227 28.1631Z" fill="#D81D1D"/>
<path d="M63.6435 58.4659C64.4081 58.4659 65.0279 57.846 65.0279 57.0814C65.0279 56.3168 64.4081 55.697 63.6435 55.697C62.8789 55.697 62.259 56.3168 62.259 57.0814C62.259 57.846 62.8789 58.4659 63.6435 58.4659Z" fill="#D81D1D"/>
</svg>
