<svg width="37" height="37" viewBox="0 0 37 37" fill="none" xmlns="http://www.w3.org/2000/svg">
<path d="M35.959 30.9251L25.1282 20.0943C28.0475 14.9626 27.3221 8.30455 22.95 3.93241C17.7067 -1.3108 9.17548 -1.3108 3.93237 3.93241C-1.31074 9.17561 -1.31084 17.7068 3.93237 22.95C8.30442 27.3221 14.9626 28.0475 20.0943 25.1283L30.9249 35.9591C32.3128 37.3469 34.5712 37.3468 35.959 35.9591C37.3469 34.5714 37.347 32.313 35.959 30.9251ZM20.2714 20.2715C16.5051 24.0379 10.3771 24.0379 6.61079 20.2715C2.84454 16.5053 2.84454 10.3772 6.61079 6.61092C10.3771 2.84467 16.5051 2.84467 20.2714 6.61092C24.0377 10.3772 24.0376 16.5054 20.2714 20.2715Z" fill="black"/>
</svg>
