<svg width="75" height="80" viewBox="0 0 75 80" fill="none" xmlns="http://www.w3.org/2000/svg">
<path d="M37.5003 0C16.8224 0 0 17.9437 0 40.0007C0 62.0549 16.8224 80 37.4997 80C58.1763 80 75 62.0541 75 40.0007C75.0007 17.9437 58.1763 0 37.5003 0ZM37.5003 76.0009C18.8931 76.0009 3.74983 59.8483 3.74983 40.0007C3.74983 20.1524 18.8924 3.99979 37.5003 3.99979C56.1083 3.99979 71.2515 20.1517 71.2515 40.0007C71.2508 59.8483 56.1076 76.0009 37.5003 76.0009ZM61.5426 44.543C61.1873 44.0626 60.6452 43.7821 60.0669 43.7821H14.9291C14.3555 43.7821 13.8114 44.0633 13.454 44.543C13.0986 45.0235 12.9708 45.6524 13.1033 46.2499C15.8091 58.3363 25.8419 66.7814 37.4956 66.7814C49.1454 66.7814 59.1728 58.3449 61.8893 46.2499C62.0292 45.6524 61.898 45.0235 61.5426 44.543ZM37.5003 62.7816C28.3998 62.7816 20.4645 56.7273 17.4414 47.7811H57.5545C54.5295 56.7273 46.5935 62.7816 37.5003 62.7816ZM21.2361 25.9568C21.2361 23.217 23.3222 21.0005 25.8821 21.0005C28.4433 21.0005 30.5254 23.217 30.5254 25.9568C30.5254 28.6917 28.4426 30.9118 25.8821 30.9118C23.3222 30.9125 21.2361 28.6917 21.2361 25.9568ZM44.4746 25.9568C44.4746 23.217 46.5527 21.0005 49.1179 21.0005C51.6738 21.0005 53.7579 23.217 53.7579 25.9568C53.7579 28.6917 51.6651 30.9118 49.1179 30.9118C46.5527 30.9125 44.4746 28.6917 44.4746 25.9568Z" fill="#38CB61"/>
</svg>
