<svg width="75" height="75" viewBox="0 0 75 75" fill="none" xmlns="http://www.w3.org/2000/svg">
<g clip-path="url(#clip0_62_238)">
<path d="M68.4501 16.3196C64.2663 10.2175 58.445 5.52452 51.6156 2.74776C50.865 2.44278 50.0103 2.80386 49.7055 3.55357C49.4006 4.30357 49.7614 5.1586 50.5113 5.46358C56.807 8.02326 62.1741 12.3504 66.0319 17.9773C69.9808 23.7373 72.0684 30.488 72.0684 37.4999C72.0684 56.5609 56.5611 72.0681 37.5002 72.0681C18.4393 72.0681 2.93189 56.5611 2.93189 37.4999C2.93189 18.4388 18.439 2.93189 37.4999 2.93189C38.3097 2.93189 38.9658 2.27549 38.9658 1.46602C38.9658 0.656544 38.3097 0 37.4999 0C16.8223 0 0 16.8224 0 37.4999C0 58.1774 16.8223 74.9998 37.4999 74.9998C58.1776 74.9998 74.9998 58.1776 74.9998 37.4999C75.0001 29.8939 72.7352 22.5696 68.4501 16.3196Z" fill="#F9FE04"/>
<path d="M31.2252 20.4824C27.992 20.4824 25.3616 23.1128 25.3616 26.3461C25.3616 29.5793 27.992 32.2097 31.2252 32.2097C34.4584 32.2097 37.0888 29.5793 37.0888 26.3461C37.0888 23.1128 34.4584 20.4824 31.2252 20.4824ZM31.2252 29.2779C29.6086 29.2779 28.2933 27.9627 28.2933 26.3461C28.2933 24.7295 29.6086 23.4142 31.2252 23.4142C32.8418 23.4142 34.1571 24.7295 34.1571 26.3461C34.1571 27.9627 32.8418 29.2779 31.2252 29.2779Z" fill="#FFF506"/>
<path d="M55.9845 20.4824C52.7513 20.4824 50.1208 23.1128 50.1208 26.3461C50.1208 29.5793 52.7513 32.2097 55.9845 32.2097C59.2177 32.2097 61.8481 29.5793 61.8481 26.3461C61.8483 23.1128 59.2177 20.4824 55.9845 20.4824ZM55.9845 29.2779C54.3679 29.2779 53.0526 27.9627 53.0526 26.3461C53.0526 24.7295 54.3679 23.4142 55.9845 23.4142C57.6011 23.4142 58.9164 24.7295 58.9164 26.3461C58.9164 27.9627 57.6011 29.2779 55.9845 29.2779Z" fill="#FFF506"/>
<path d="M57.9897 49.0957H31.535C30.7252 49.0957 30.0691 49.7518 30.0691 50.5616C30.0691 51.3712 30.7252 52.0274 31.535 52.0274H57.9898C58.7996 52.0274 59.4557 51.371 59.4557 50.5616C59.4557 49.752 58.7994 49.0957 57.9897 49.0957Z" fill="#FFF506"/>
<path d="M46.4363 4.21202C47.2459 4.21202 47.9022 3.55572 47.9022 2.74615C47.9022 1.93657 47.2459 1.28027 46.4363 1.28027C45.6268 1.28027 44.9705 1.93657 44.9705 2.74615C44.9705 3.55572 45.6268 4.21202 46.4363 4.21202Z" fill="#FFF506"/>
</g>
<defs>
<clipPath id="clip0_62_238">
<rect width="75" height="75" fill="white"/>
</clipPath>
</defs>
</svg>
