<svg width="27" height="37" viewBox="0 0 27 37" fill="none" xmlns="http://www.w3.org/2000/svg">
<path d="M10.45 19.042V4.20002H15V13.2102V13.5707L15.342 13.6846L26.1 17.2671V23.22L26.0759 23.8335L26.0045 24.4315L25.8888 25.0271L25.7293 25.6073L25.5226 26.1766L25.2669 26.7364L24.9851 27.3035L24.98 27.3138L24.9754 27.3243L24.7333 27.8736L24.724 27.8945L24.7168 27.9162L24.5253 28.4871L24.518 28.5089L24.5127 28.5313L24.3754 29.113L24.3703 29.1343L24.3672 29.1559L24.2805 29.7521L24.2768 29.7774L24.2757 29.803L24.2504 30.4028L24.25 30.4133V30.4239V36.5H12.3V33.4951V33.4822L12.2993 33.4693L12.2668 32.8406L12.2656 32.8177L12.2623 32.7949L12.172 32.1698L12.1684 32.145L12.1624 32.1207L12.0106 31.5101L12.0048 31.4867L11.9968 31.464L11.7872 30.8714L11.7792 30.8488L11.7691 30.8271L11.5017 30.2526L11.4912 30.23L11.4784 30.2085L11.1568 29.6665L11.1442 29.6452L11.1296 29.6253L10.7574 29.1194L10.7428 29.0996L10.7263 29.0813L10.3036 28.6115L10.288 28.5942L10.2708 28.5784L9.80832 28.152L9.8084 28.1519L9.80011 28.1446L9.07837 27.5082L8.40901 26.8389L7.77387 26.13L7.18524 25.3907L6.63872 24.613L6.1415 23.8076L5.69271 22.9697L5.293 22.1141L4.94238 21.2271L4.64462 20.3303L4.47247 19.6766L7.17499 16.9741L9.59643 19.3956L10.45 20.2491V19.042ZM11.8 5.05002H11.3V5.55002V22.3009L7.52854 18.5295L7.17499 18.1759L6.82143 18.5295L5.62544 19.7255L5.40397 19.9469L5.50659 20.2428L5.81733 21.1389L5.82225 21.1531L5.82802 21.167L6.19297 22.0451L6.19901 22.0596L6.20595 22.0737L6.62509 22.9264L6.6328 22.9421L6.64158 22.9572L7.11853 23.7774L7.12597 23.7902L7.13416 23.8026L7.6617 24.5975L7.67093 24.6114L7.68107 24.6247L8.25558 25.3762L8.26471 25.3882L8.27453 25.3995L8.89602 26.1186L8.90702 26.1313L8.91885 26.1433L9.58731 26.819L9.5982 26.83L9.60975 26.8403L10.3151 27.4701L10.318 27.4726L10.8409 27.9468L11.3055 28.4487L11.7234 28.9923L12.0931 29.5654L12.4089 30.1768L12.6744 30.8098L12.8814 31.4612L13.0309 32.1307L13.1224 32.8087L13.15 33.505V35.1536V35.6536H13.65H22.8964H23.3964V35.1536V30.4337L23.4205 29.82L23.4917 29.2197L23.6108 28.6243L23.7706 28.0428L23.9778 27.4722L24.23 26.9126L24.5112 26.3465L24.5155 26.338L24.5194 26.3294L24.7651 25.7838L24.7753 25.7611L24.7832 25.7375L24.9747 25.1666L24.9821 25.1444L24.9875 25.1217L25.1248 24.5364L25.13 24.5142L25.1331 24.4916L25.2162 23.8991L25.2194 23.8765L25.2205 23.8537L25.2494 23.2539L25.25 23.2419V23.2298V18.2435V17.8831L24.9081 17.7691L14.15 14.1831V5.55002V5.05002H13.65H11.8ZM4.02185 12.6211L3.41988 13.223C0.460953 9.9109 0.460953 4.88915 3.41988 1.57702L4.02185 2.179C1.39344 5.15752 1.39344 9.64253 4.02185 12.6211ZM21.4281 12.6211C24.0565 9.64253 24.0565 5.15752 21.4281 2.179L22.0301 1.57702C24.989 4.88915 24.989 9.9109 22.0301 13.223L21.4281 12.6211ZM6.64769 9.99522L6.04324 10.5997C4.51946 8.74378 4.51946 6.05627 6.04324 4.20039L6.64769 4.80483C5.45112 6.32341 5.45112 8.47664 6.64769 9.99522ZM18.8023 9.99522C19.9988 8.47664 19.9988 6.32341 18.8023 4.80483L19.4067 4.20039C20.9305 6.05627 20.9305 8.74378 19.4067 10.5997L18.8023 9.99522Z" fill="#222222" stroke="black"/>
<path d="M10.45 19.042V4.20002H15V13.2102V13.5707L15.342 13.6846L26.1 17.2671V23.22L26.0759 23.8335L26.0045 24.4315L25.8888 25.0271L25.7293 25.6073L25.5226 26.1766L25.2669 26.7364L24.9851 27.3035L24.98 27.3138L24.9754 27.3243L24.7333 27.8736L24.724 27.8945L24.7168 27.9162L24.5253 28.4871L24.518 28.5089L24.5127 28.5313L24.3754 29.113L24.3703 29.1343L24.3672 29.1559L24.2805 29.7521L24.2768 29.7774L24.2757 29.803L24.2504 30.4028L24.25 30.4133V30.4239V36.5H12.3V33.4951V33.4822L12.2993 33.4693L12.2668 32.8406L12.2656 32.8177L12.2623 32.7949L12.172 32.1698L12.1684 32.145L12.1624 32.1207L12.0106 31.5101L12.0048 31.4867L11.9968 31.464L11.7872 30.8714L11.7792 30.8488L11.7691 30.8271L11.5017 30.2526L11.4912 30.23L11.4784 30.2085L11.1568 29.6665L11.1442 29.6452L11.1296 29.6253L10.7574 29.1194L10.7428 29.0996L10.7263 29.0813L10.3036 28.6115L10.288 28.5942L10.2708 28.5784L9.80832 28.152L9.8084 28.1519L9.80011 28.1446L9.07837 27.5082L8.40901 26.8389L7.77387 26.13L7.18524 25.3907L6.63872 24.613L6.1415 23.8076L5.69271 22.9697L5.293 22.1141L4.94238 21.2271L4.64462 20.3303L4.47247 19.6766L7.17499 16.9741L9.59643 19.3956L10.45 20.2491V19.042ZM11.8 5.05002H11.3V5.55002V22.3009L7.52854 18.5295L7.17499 18.1759L6.82143 18.5295L5.62544 19.7255L5.40397 19.9469L5.50659 20.2428L5.81733 21.1389L5.82225 21.1531L5.82802 21.167L6.19297 22.0451L6.19901 22.0596L6.20595 22.0737L6.62509 22.9264L6.6328 22.9421L6.64158 22.9572L7.11853 23.7774L7.12597 23.7902L7.13416 23.8026L7.6617 24.5975L7.67093 24.6114L7.68107 24.6247L8.25558 25.3762L8.26471 25.3882L8.27453 25.3995L8.89602 26.1186L8.90702 26.1313L8.91885 26.1433L9.58731 26.819L9.5982 26.83L9.60975 26.8403L10.3151 27.4701L10.318 27.4726L10.8409 27.9468L11.3055 28.4487L11.7234 28.9923L12.0931 29.5654L12.4089 30.1768L12.6744 30.8098L12.8814 31.4612L13.0309 32.1307L13.1224 32.8087L13.15 33.505V35.1536V35.6536H13.65H22.8964H23.3964V35.1536V30.4337L23.4205 29.82L23.4917 29.2197L23.6108 28.6243L23.7706 28.0428L23.9778 27.4722L24.23 26.9126L24.5112 26.3465L24.5155 26.338L24.5194 26.3294L24.7651 25.7838L24.7753 25.7611L24.7832 25.7375L24.9747 25.1666L24.9821 25.1444L24.9875 25.1217L25.1248 24.5364L25.13 24.5142L25.1331 24.4916L25.2162 23.8991L25.2194 23.8765L25.2205 23.8537L25.2494 23.2539L25.25 23.2419V23.2298V18.2435V17.8831L24.9081 17.7691L14.15 14.1831V5.55002V5.05002H13.65H11.8ZM4.02185 12.6211L3.41988 13.223C0.460953 9.9109 0.460953 4.88915 3.41988 1.57702L4.02185 2.179C1.39344 5.15752 1.39344 9.64253 4.02185 12.6211ZM21.4281 12.6211C24.0565 9.64253 24.0565 5.15752 21.4281 2.179L22.0301 1.57702C24.989 4.88915 24.989 9.9109 22.0301 13.223L21.4281 12.6211ZM6.64769 9.99522L6.04324 10.5997C4.51946 8.74378 4.51946 6.05627 6.04324 4.20039L6.64769 4.80483C5.45112 6.32341 5.45112 8.47664 6.64769 9.99522ZM18.8023 9.99522C19.9988 8.47664 19.9988 6.32341 18.8023 4.80483L19.4067 4.20039C20.9305 6.05627 20.9305 8.74378 19.4067 10.5997L18.8023 9.99522Z" fill="#222222" stroke="black"/>
<path d="M10.45 19.042V4.20002H15V13.2102V13.5707L15.342 13.6846L26.1 17.2671V23.22L26.0759 23.8335L26.0045 24.4315L25.8888 25.0271L25.7293 25.6073L25.5226 26.1766L25.2669 26.7364L24.9851 27.3035L24.98 27.3138L24.9754 27.3243L24.7333 27.8736L24.724 27.8945L24.7168 27.9162L24.5253 28.4871L24.518 28.5089L24.5127 28.5313L24.3754 29.113L24.3703 29.1343L24.3672 29.1559L24.2805 29.7521L24.2768 29.7774L24.2757 29.803L24.2504 30.4028L24.25 30.4133V30.4239V36.5H12.3V33.4951V33.4822L12.2993 33.4693L12.2668 32.8406L12.2656 32.8177L12.2623 32.7949L12.172 32.1698L12.1684 32.145L12.1624 32.1207L12.0106 31.5101L12.0048 31.4867L11.9968 31.464L11.7872 30.8714L11.7792 30.8488L11.7691 30.8271L11.5017 30.2526L11.4912 30.23L11.4784 30.2085L11.1568 29.6665L11.1442 29.6452L11.1296 29.6253L10.7574 29.1194L10.7428 29.0996L10.7263 29.0813L10.3036 28.6115L10.288 28.5942L10.2708 28.5784L9.80832 28.152L9.8084 28.1519L9.80011 28.1446L9.07837 27.5082L8.40901 26.8389L7.77387 26.13L7.18524 25.3907L6.63872 24.613L6.1415 23.8076L5.69271 22.9697L5.293 22.1141L4.94238 21.2271L4.64462 20.3303L4.47247 19.6766L7.17499 16.9741L9.59643 19.3956L10.45 20.2491V19.042ZM11.8 5.05002H11.3V5.55002V22.3009L7.52854 18.5295L7.17499 18.1759L6.82143 18.5295L5.62544 19.7255L5.40397 19.9469L5.50659 20.2428L5.81733 21.1389L5.82225 21.1531L5.82802 21.167L6.19297 22.0451L6.19901 22.0596L6.20595 22.0737L6.62509 22.9264L6.6328 22.9421L6.64158 22.9572L7.11853 23.7774L7.12597 23.7902L7.13416 23.8026L7.6617 24.5975L7.67093 24.6114L7.68107 24.6247L8.25558 25.3762L8.26471 25.3882L8.27453 25.3995L8.89602 26.1186L8.90702 26.1313L8.91885 26.1433L9.58731 26.819L9.5982 26.83L9.60975 26.8403L10.3151 27.4701L10.318 27.4726L10.8409 27.9468L11.3055 28.4487L11.7234 28.9923L12.0931 29.5654L12.4089 30.1768L12.6744 30.8098L12.8814 31.4612L13.0309 32.1307L13.1224 32.8087L13.15 33.505V35.1536V35.6536H13.65H22.8964H23.3964V35.1536V30.4337L23.4205 29.82L23.4917 29.2197L23.6108 28.6243L23.7706 28.0428L23.9778 27.4722L24.23 26.9126L24.5112 26.3465L24.5155 26.338L24.5194 26.3294L24.7651 25.7838L24.7753 25.7611L24.7832 25.7375L24.9747 25.1666L24.9821 25.1444L24.9875 25.1217L25.1248 24.5364L25.13 24.5142L25.1331 24.4916L25.2162 23.8991L25.2194 23.8765L25.2205 23.8537L25.2494 23.2539L25.25 23.2419V23.2298V18.2435V17.8831L24.9081 17.7691L14.15 14.1831V5.55002V5.05002H13.65H11.8ZM4.02185 12.6211L3.41988 13.223C0.460953 9.9109 0.460953 4.88915 3.41988 1.57702L4.02185 2.179C1.39344 5.15752 1.39344 9.64253 4.02185 12.6211ZM21.4281 12.6211C24.0565 9.64253 24.0565 5.15752 21.4281 2.179L22.0301 1.57702C24.989 4.88915 24.989 9.9109 22.0301 13.223L21.4281 12.6211ZM6.64769 9.99522L6.04324 10.5997C4.51946 8.74378 4.51946 6.05627 6.04324 4.20039L6.64769 4.80483C5.45112 6.32341 5.45112 8.47664 6.64769 9.99522ZM18.8023 9.99522C19.9988 8.47664 19.9988 6.32341 18.8023 4.80483L19.4067 4.20039C20.9305 6.05627 20.9305 8.74378 19.4067 10.5997L18.8023 9.99522Z" fill="#222222" stroke="black"/>
<path d="M10.45 19.042V4.20002H15V13.2102V13.5707L15.342 13.6846L26.1 17.2671V23.22L26.0759 23.8335L26.0045 24.4315L25.8888 25.0271L25.7293 25.6073L25.5226 26.1766L25.2669 26.7364L24.9851 27.3035L24.98 27.3138L24.9754 27.3243L24.7333 27.8736L24.724 27.8945L24.7168 27.9162L24.5253 28.4871L24.518 28.5089L24.5127 28.5313L24.3754 29.113L24.3703 29.1343L24.3672 29.1559L24.2805 29.7521L24.2768 29.7774L24.2757 29.803L24.2504 30.4028L24.25 30.4133V30.4239V36.5H12.3V33.4951V33.4822L12.2993 33.4693L12.2668 32.8406L12.2656 32.8177L12.2623 32.7949L12.172 32.1698L12.1684 32.145L12.1624 32.1207L12.0106 31.5101L12.0048 31.4867L11.9968 31.464L11.7872 30.8714L11.7792 30.8488L11.7691 30.8271L11.5017 30.2526L11.4912 30.23L11.4784 30.2085L11.1568 29.6665L11.1442 29.6452L11.1296 29.6253L10.7574 29.1194L10.7428 29.0996L10.7263 29.0813L10.3036 28.6115L10.288 28.5942L10.2708 28.5784L9.80832 28.152L9.8084 28.1519L9.80011 28.1446L9.07837 27.5082L8.40901 26.8389L7.77387 26.13L7.18524 25.3907L6.63872 24.613L6.1415 23.8076L5.69271 22.9697L5.293 22.1141L4.94238 21.2271L4.64462 20.3303L4.47247 19.6766L7.17499 16.9741L9.59643 19.3956L10.45 20.2491V19.042ZM11.8 5.05002H11.3V5.55002V22.3009L7.52854 18.5295L7.17499 18.1759L6.82143 18.5295L5.62544 19.7255L5.40397 19.9469L5.50659 20.2428L5.81733 21.1389L5.82225 21.1531L5.82802 21.167L6.19297 22.0451L6.19901 22.0596L6.20595 22.0737L6.62509 22.9264L6.6328 22.9421L6.64158 22.9572L7.11853 23.7774L7.12597 23.7902L7.13416 23.8026L7.6617 24.5975L7.67093 24.6114L7.68107 24.6247L8.25558 25.3762L8.26471 25.3882L8.27453 25.3995L8.89602 26.1186L8.90702 26.1313L8.91885 26.1433L9.58731 26.819L9.5982 26.83L9.60975 26.8403L10.3151 27.4701L10.318 27.4726L10.8409 27.9468L11.3055 28.4487L11.7234 28.9923L12.0931 29.5654L12.4089 30.1768L12.6744 30.8098L12.8814 31.4612L13.0309 32.1307L13.1224 32.8087L13.15 33.505V35.1536V35.6536H13.65H22.8964H23.3964V35.1536V30.4337L23.4205 29.82L23.4917 29.2197L23.6108 28.6243L23.7706 28.0428L23.9778 27.4722L24.23 26.9126L24.5112 26.3465L24.5155 26.338L24.5194 26.3294L24.7651 25.7838L24.7753 25.7611L24.7832 25.7375L24.9747 25.1666L24.9821 25.1444L24.9875 25.1217L25.1248 24.5364L25.13 24.5142L25.1331 24.4916L25.2162 23.8991L25.2194 23.8765L25.2205 23.8537L25.2494 23.2539L25.25 23.2419V23.2298V18.2435V17.8831L24.9081 17.7691L14.15 14.1831V5.55002V5.05002H13.65H11.8ZM4.02185 12.6211L3.41988 13.223C0.460953 9.9109 0.460953 4.88915 3.41988 1.57702L4.02185 2.179C1.39344 5.15752 1.39344 9.64253 4.02185 12.6211ZM21.4281 12.6211C24.0565 9.64253 24.0565 5.15752 21.4281 2.179L22.0301 1.57702C24.989 4.88915 24.989 9.9109 22.0301 13.223L21.4281 12.6211ZM6.64769 9.99522L6.04324 10.5997C4.51946 8.74378 4.51946 6.05627 6.04324 4.20039L6.64769 4.80483C5.45112 6.32341 5.45112 8.47664 6.64769 9.99522ZM18.8023 9.99522C19.9988 8.47664 19.9988 6.32341 18.8023 4.80483L19.4067 4.20039C20.9305 6.05627 20.9305 8.74378 19.4067 10.5997L18.8023 9.99522Z" fill="#222222" stroke="black"/>
<path d="M10.45 19.042V4.20002H15V13.2102V13.5707L15.342 13.6846L26.1 17.2671V23.22L26.0759 23.8335L26.0045 24.4315L25.8888 25.0271L25.7293 25.6073L25.5226 26.1766L25.2669 26.7364L24.9851 27.3035L24.98 27.3138L24.9754 27.3243L24.7333 27.8736L24.724 27.8945L24.7168 27.9162L24.5253 28.4871L24.518 28.5089L24.5127 28.5313L24.3754 29.113L24.3703 29.1343L24.3672 29.1559L24.2805 29.7521L24.2768 29.7774L24.2757 29.803L24.2504 30.4028L24.25 30.4133V30.4239V36.5H12.3V33.4951V33.4822L12.2993 33.4693L12.2668 32.8406L12.2656 32.8177L12.2623 32.7949L12.172 32.1698L12.1684 32.145L12.1624 32.1207L12.0106 31.5101L12.0048 31.4867L11.9968 31.464L11.7872 30.8714L11.7792 30.8488L11.7691 30.8271L11.5017 30.2526L11.4912 30.23L11.4784 30.2085L11.1568 29.6665L11.1442 29.6452L11.1296 29.6253L10.7574 29.1194L10.7428 29.0996L10.7263 29.0813L10.3036 28.6115L10.288 28.5942L10.2708 28.5784L9.80832 28.152L9.8084 28.1519L9.80011 28.1446L9.07837 27.5082L8.40901 26.8389L7.77387 26.13L7.18524 25.3907L6.63872 24.613L6.1415 23.8076L5.69271 22.9697L5.293 22.1141L4.94238 21.2271L4.64462 20.3303L4.47247 19.6766L7.17499 16.9741L9.59643 19.3956L10.45 20.2491V19.042ZM11.8 5.05002H11.3V5.55002V22.3009L7.52854 18.5295L7.17499 18.1759L6.82143 18.5295L5.62544 19.7255L5.40397 19.9469L5.50659 20.2428L5.81733 21.1389L5.82225 21.1531L5.82802 21.167L6.19297 22.0451L6.19901 22.0596L6.20595 22.0737L6.62509 22.9264L6.6328 22.9421L6.64158 22.9572L7.11853 23.7774L7.12597 23.7902L7.13416 23.8026L7.6617 24.5975L7.67093 24.6114L7.68107 24.6247L8.25558 25.3762L8.26471 25.3882L8.27453 25.3995L8.89602 26.1186L8.90702 26.1313L8.91885 26.1433L9.58731 26.819L9.5982 26.83L9.60975 26.8403L10.3151 27.4701L10.318 27.4726L10.8409 27.9468L11.3055 28.4487L11.7234 28.9923L12.0931 29.5654L12.4089 30.1768L12.6744 30.8098L12.8814 31.4612L13.0309 32.1307L13.1224 32.8087L13.15 33.505V35.1536V35.6536H13.65H22.8964H23.3964V35.1536V30.4337L23.4205 29.82L23.4917 29.2197L23.6108 28.6243L23.7706 28.0428L23.9778 27.4722L24.23 26.9126L24.5112 26.3465L24.5155 26.338L24.5194 26.3294L24.7651 25.7838L24.7753 25.7611L24.7832 25.7375L24.9747 25.1666L24.9821 25.1444L24.9875 25.1217L25.1248 24.5364L25.13 24.5142L25.1331 24.4916L25.2162 23.8991L25.2194 23.8765L25.2205 23.8537L25.2494 23.2539L25.25 23.2419V23.2298V18.2435V17.8831L24.9081 17.7691L14.15 14.1831V5.55002V5.05002H13.65H11.8ZM4.02185 12.6211L3.41988 13.223C0.460953 9.9109 0.460953 4.88915 3.41988 1.57702L4.02185 2.179C1.39344 5.15752 1.39344 9.64253 4.02185 12.6211ZM21.4281 12.6211C24.0565 9.64253 24.0565 5.15752 21.4281 2.179L22.0301 1.57702C24.989 4.88915 24.989 9.9109 22.0301 13.223L21.4281 12.6211ZM6.64769 9.99522L6.04324 10.5997C4.51946 8.74378 4.51946 6.05627 6.04324 4.20039L6.64769 4.80483C5.45112 6.32341 5.45112 8.47664 6.64769 9.99522ZM18.8023 9.99522C19.9988 8.47664 19.9988 6.32341 18.8023 4.80483L19.4067 4.20039C20.9305 6.05627 20.9305 8.74378 19.4067 10.5997L18.8023 9.99522Z" fill="#222222" stroke="black"/>
<path d="M10.45 19.042V4.20002H15V13.2102V13.5707L15.342 13.6846L26.1 17.2671V23.22L26.0759 23.8335L26.0045 24.4315L25.8888 25.0271L25.7293 25.6073L25.5226 26.1766L25.2669 26.7364L24.9851 27.3035L24.98 27.3138L24.9754 27.3243L24.7333 27.8736L24.724 27.8945L24.7168 27.9162L24.5253 28.4871L24.518 28.5089L24.5127 28.5313L24.3754 29.113L24.3703 29.1343L24.3672 29.1559L24.2805 29.7521L24.2768 29.7774L24.2757 29.803L24.2504 30.4028L24.25 30.4133V30.4239V36.5H12.3V33.4951V33.4822L12.2993 33.4693L12.2668 32.8406L12.2656 32.8177L12.2623 32.7949L12.172 32.1698L12.1684 32.145L12.1624 32.1207L12.0106 31.5101L12.0048 31.4867L11.9968 31.464L11.7872 30.8714L11.7792 30.8488L11.7691 30.8271L11.5017 30.2526L11.4912 30.23L11.4784 30.2085L11.1568 29.6665L11.1442 29.6452L11.1296 29.6253L10.7574 29.1194L10.7428 29.0996L10.7263 29.0813L10.3036 28.6115L10.288 28.5942L10.2708 28.5784L9.80832 28.152L9.8084 28.1519L9.80011 28.1446L9.07837 27.5082L8.40901 26.8389L7.77387 26.13L7.18524 25.3907L6.63872 24.613L6.1415 23.8076L5.69271 22.9697L5.293 22.1141L4.94238 21.2271L4.64462 20.3303L4.47247 19.6766L7.17499 16.9741L9.59643 19.3956L10.45 20.2491V19.042ZM11.8 5.05002H11.3V5.55002V22.3009L7.52854 18.5295L7.17499 18.1759L6.82143 18.5295L5.62544 19.7255L5.40397 19.9469L5.50659 20.2428L5.81733 21.1389L5.82225 21.1531L5.82802 21.167L6.19297 22.0451L6.19901 22.0596L6.20595 22.0737L6.62509 22.9264L6.6328 22.9421L6.64158 22.9572L7.11853 23.7774L7.12597 23.7902L7.13416 23.8026L7.6617 24.5975L7.67093 24.6114L7.68107 24.6247L8.25558 25.3762L8.26471 25.3882L8.27453 25.3995L8.89602 26.1186L8.90702 26.1313L8.91885 26.1433L9.58731 26.819L9.5982 26.83L9.60975 26.8403L10.3151 27.4701L10.318 27.4726L10.8409 27.9468L11.3055 28.4487L11.7234 28.9923L12.0931 29.5654L12.4089 30.1768L12.6744 30.8098L12.8814 31.4612L13.0309 32.1307L13.1224 32.8087L13.15 33.505V35.1536V35.6536H13.65H22.8964H23.3964V35.1536V30.4337L23.4205 29.82L23.4917 29.2197L23.6108 28.6243L23.7706 28.0428L23.9778 27.4722L24.23 26.9126L24.5112 26.3465L24.5155 26.338L24.5194 26.3294L24.7651 25.7838L24.7753 25.7611L24.7832 25.7375L24.9747 25.1666L24.9821 25.1444L24.9875 25.1217L25.1248 24.5364L25.13 24.5142L25.1331 24.4916L25.2162 23.8991L25.2194 23.8765L25.2205 23.8537L25.2494 23.2539L25.25 23.2419V23.2298V18.2435V17.8831L24.9081 17.7691L14.15 14.1831V5.55002V5.05002H13.65H11.8ZM4.02185 12.6211L3.41988 13.223C0.460953 9.9109 0.460953 4.88915 3.41988 1.57702L4.02185 2.179C1.39344 5.15752 1.39344 9.64253 4.02185 12.6211ZM21.4281 12.6211C24.0565 9.64253 24.0565 5.15752 21.4281 2.179L22.0301 1.57702C24.989 4.88915 24.989 9.9109 22.0301 13.223L21.4281 12.6211ZM6.64769 9.99522L6.04324 10.5997C4.51946 8.74378 4.51946 6.05627 6.04324 4.20039L6.64769 4.80483C5.45112 6.32341 5.45112 8.47664 6.64769 9.99522ZM18.8023 9.99522C19.9988 8.47664 19.9988 6.32341 18.8023 4.80483L19.4067 4.20039C20.9305 6.05627 20.9305 8.74378 19.4067 10.5997L18.8023 9.99522Z" fill="#222222" stroke="black"/>
<path d="M10.45 19.042V4.20002H15V13.2102V13.5707L15.342 13.6846L26.1 17.2671V23.22L26.0759 23.8335L26.0045 24.4315L25.8888 25.0271L25.7293 25.6073L25.5226 26.1766L25.2669 26.7364L24.9851 27.3035L24.98 27.3138L24.9754 27.3243L24.7333 27.8736L24.724 27.8945L24.7168 27.9162L24.5253 28.4871L24.518 28.5089L24.5127 28.5313L24.3754 29.113L24.3703 29.1343L24.3672 29.1559L24.2805 29.7521L24.2768 29.7774L24.2757 29.803L24.2504 30.4028L24.25 30.4133V30.4239V36.5H12.3V33.4951V33.4822L12.2993 33.4693L12.2668 32.8406L12.2656 32.8177L12.2623 32.7949L12.172 32.1698L12.1684 32.145L12.1624 32.1207L12.0106 31.5101L12.0048 31.4867L11.9968 31.464L11.7872 30.8714L11.7792 30.8488L11.7691 30.8271L11.5017 30.2526L11.4912 30.23L11.4784 30.2085L11.1568 29.6665L11.1442 29.6452L11.1296 29.6253L10.7574 29.1194L10.7428 29.0996L10.7263 29.0813L10.3036 28.6115L10.288 28.5942L10.2708 28.5784L9.80832 28.152L9.8084 28.1519L9.80011 28.1446L9.07837 27.5082L8.40901 26.8389L7.77387 26.13L7.18524 25.3907L6.63872 24.613L6.1415 23.8076L5.69271 22.9697L5.293 22.1141L4.94238 21.2271L4.64462 20.3303L4.47247 19.6766L7.17499 16.9741L9.59643 19.3956L10.45 20.2491V19.042ZM11.8 5.05002H11.3V5.55002V22.3009L7.52854 18.5295L7.17499 18.1759L6.82143 18.5295L5.62544 19.7255L5.40397 19.9469L5.50659 20.2428L5.81733 21.1389L5.82225 21.1531L5.82802 21.167L6.19297 22.0451L6.19901 22.0596L6.20595 22.0737L6.62509 22.9264L6.6328 22.9421L6.64158 22.9572L7.11853 23.7774L7.12597 23.7902L7.13416 23.8026L7.6617 24.5975L7.67093 24.6114L7.68107 24.6247L8.25558 25.3762L8.26471 25.3882L8.27453 25.3995L8.89602 26.1186L8.90702 26.1313L8.91885 26.1433L9.58731 26.819L9.5982 26.83L9.60975 26.8403L10.3151 27.4701L10.318 27.4726L10.8409 27.9468L11.3055 28.4487L11.7234 28.9923L12.0931 29.5654L12.4089 30.1768L12.6744 30.8098L12.8814 31.4612L13.0309 32.1307L13.1224 32.8087L13.15 33.505V35.1536V35.6536H13.65H22.8964H23.3964V35.1536V30.4337L23.4205 29.82L23.4917 29.2197L23.6108 28.6243L23.7706 28.0428L23.9778 27.4722L24.23 26.9126L24.5112 26.3465L24.5155 26.338L24.5194 26.3294L24.7651 25.7838L24.7753 25.7611L24.7832 25.7375L24.9747 25.1666L24.9821 25.1444L24.9875 25.1217L25.1248 24.5364L25.13 24.5142L25.1331 24.4916L25.2162 23.8991L25.2194 23.8765L25.2205 23.8537L25.2494 23.2539L25.25 23.2419V23.2298V18.2435V17.8831L24.9081 17.7691L14.15 14.1831V5.55002V5.05002H13.65H11.8ZM4.02185 12.6211L3.41988 13.223C0.460953 9.9109 0.460953 4.88915 3.41988 1.57702L4.02185 2.179C1.39344 5.15752 1.39344 9.64253 4.02185 12.6211ZM21.4281 12.6211C24.0565 9.64253 24.0565 5.15752 21.4281 2.179L22.0301 1.57702C24.989 4.88915 24.989 9.9109 22.0301 13.223L21.4281 12.6211ZM6.64769 9.99522L6.04324 10.5997C4.51946 8.74378 4.51946 6.05627 6.04324 4.20039L6.64769 4.80483C5.45112 6.32341 5.45112 8.47664 6.64769 9.99522ZM18.8023 9.99522C19.9988 8.47664 19.9988 6.32341 18.8023 4.80483L19.4067 4.20039C20.9305 6.05627 20.9305 8.74378 19.4067 10.5997L18.8023 9.99522Z" fill="#222222" stroke="black"/>
<path d="M10.45 19.042V4.20002H15V13.2102V13.5707L15.342 13.6846L26.1 17.2671V23.22L26.0759 23.8335L26.0045 24.4315L25.8888 25.0271L25.7293 25.6073L25.5226 26.1766L25.2669 26.7364L24.9851 27.3035L24.98 27.3138L24.9754 27.3243L24.7333 27.8736L24.724 27.8945L24.7168 27.9162L24.5253 28.4871L24.518 28.5089L24.5127 28.5313L24.3754 29.113L24.3703 29.1343L24.3672 29.1559L24.2805 29.7521L24.2768 29.7774L24.2757 29.803L24.2504 30.4028L24.25 30.4133V30.4239V36.5H12.3V33.4951V33.4822L12.2993 33.4693L12.2668 32.8406L12.2656 32.8177L12.2623 32.7949L12.172 32.1698L12.1684 32.145L12.1624 32.1207L12.0106 31.5101L12.0048 31.4867L11.9968 31.464L11.7872 30.8714L11.7792 30.8488L11.7691 30.8271L11.5017 30.2526L11.4912 30.23L11.4784 30.2085L11.1568 29.6665L11.1442 29.6452L11.1296 29.6253L10.7574 29.1194L10.7428 29.0996L10.7263 29.0813L10.3036 28.6115L10.288 28.5942L10.2708 28.5784L9.80832 28.152L9.8084 28.1519L9.80011 28.1446L9.07837 27.5082L8.40901 26.8389L7.77387 26.13L7.18524 25.3907L6.63872 24.613L6.1415 23.8076L5.69271 22.9697L5.293 22.1141L4.94238 21.2271L4.64462 20.3303L4.47247 19.6766L7.17499 16.9741L9.59643 19.3956L10.45 20.2491V19.042ZM11.8 5.05002H11.3V5.55002V22.3009L7.52854 18.5295L7.17499 18.1759L6.82143 18.5295L5.62544 19.7255L5.40397 19.9469L5.50659 20.2428L5.81733 21.1389L5.82225 21.1531L5.82802 21.167L6.19297 22.0451L6.19901 22.0596L6.20595 22.0737L6.62509 22.9264L6.6328 22.9421L6.64158 22.9572L7.11853 23.7774L7.12597 23.7902L7.13416 23.8026L7.6617 24.5975L7.67093 24.6114L7.68107 24.6247L8.25558 25.3762L8.26471 25.3882L8.27453 25.3995L8.89602 26.1186L8.90702 26.1313L8.91885 26.1433L9.58731 26.819L9.5982 26.83L9.60975 26.8403L10.3151 27.4701L10.318 27.4726L10.8409 27.9468L11.3055 28.4487L11.7234 28.9923L12.0931 29.5654L12.4089 30.1768L12.6744 30.8098L12.8814 31.4612L13.0309 32.1307L13.1224 32.8087L13.15 33.505V35.1536V35.6536H13.65H22.8964H23.3964V35.1536V30.4337L23.4205 29.82L23.4917 29.2197L23.6108 28.6243L23.7706 28.0428L23.9778 27.4722L24.23 26.9126L24.5112 26.3465L24.5155 26.338L24.5194 26.3294L24.7651 25.7838L24.7753 25.7611L24.7832 25.7375L24.9747 25.1666L24.9821 25.1444L24.9875 25.1217L25.1248 24.5364L25.13 24.5142L25.1331 24.4916L25.2162 23.8991L25.2194 23.8765L25.2205 23.8537L25.2494 23.2539L25.25 23.2419V23.2298V18.2435V17.8831L24.9081 17.7691L14.15 14.1831V5.55002V5.05002H13.65H11.8ZM4.02185 12.6211L3.41988 13.223C0.460953 9.9109 0.460953 4.88915 3.41988 1.57702L4.02185 2.179C1.39344 5.15752 1.39344 9.64253 4.02185 12.6211ZM21.4281 12.6211C24.0565 9.64253 24.0565 5.15752 21.4281 2.179L22.0301 1.57702C24.989 4.88915 24.989 9.9109 22.0301 13.223L21.4281 12.6211ZM6.64769 9.99522L6.04324 10.5997C4.51946 8.74378 4.51946 6.05627 6.04324 4.20039L6.64769 4.80483C5.45112 6.32341 5.45112 8.47664 6.64769 9.99522ZM18.8023 9.99522C19.9988 8.47664 19.9988 6.32341 18.8023 4.80483L19.4067 4.20039C20.9305 6.05627 20.9305 8.74378 19.4067 10.5997L18.8023 9.99522Z" fill="#222222" stroke="black"/>
<path d="M10.45 19.042V4.20002H15V13.2102V13.5707L15.342 13.6846L26.1 17.2671V23.22L26.0759 23.8335L26.0045 24.4315L25.8888 25.0271L25.7293 25.6073L25.5226 26.1766L25.2669 26.7364L24.9851 27.3035L24.98 27.3138L24.9754 27.3243L24.7333 27.8736L24.724 27.8945L24.7168 27.9162L24.5253 28.4871L24.518 28.5089L24.5127 28.5313L24.3754 29.113L24.3703 29.1343L24.3672 29.1559L24.2805 29.7521L24.2768 29.7774L24.2757 29.803L24.2504 30.4028L24.25 30.4133V30.4239V36.5H12.3V33.4951V33.4822L12.2993 33.4693L12.2668 32.8406L12.2656 32.8177L12.2623 32.7949L12.172 32.1698L12.1684 32.145L12.1624 32.1207L12.0106 31.5101L12.0048 31.4867L11.9968 31.464L11.7872 30.8714L11.7792 30.8488L11.7691 30.8271L11.5017 30.2526L11.4912 30.23L11.4784 30.2085L11.1568 29.6665L11.1442 29.6452L11.1296 29.6253L10.7574 29.1194L10.7428 29.0996L10.7263 29.0813L10.3036 28.6115L10.288 28.5942L10.2708 28.5784L9.80832 28.152L9.8084 28.1519L9.80011 28.1446L9.07837 27.5082L8.40901 26.8389L7.77387 26.13L7.18524 25.3907L6.63872 24.613L6.1415 23.8076L5.69271 22.9697L5.293 22.1141L4.94238 21.2271L4.64462 20.3303L4.47247 19.6766L7.17499 16.9741L9.59643 19.3956L10.45 20.2491V19.042ZM11.8 5.05002H11.3V5.55002V22.3009L7.52854 18.5295L7.17499 18.1759L6.82143 18.5295L5.62544 19.7255L5.40397 19.9469L5.50659 20.2428L5.81733 21.1389L5.82225 21.1531L5.82802 21.167L6.19297 22.0451L6.19901 22.0596L6.20595 22.0737L6.62509 22.9264L6.6328 22.9421L6.64158 22.9572L7.11853 23.7774L7.12597 23.7902L7.13416 23.8026L7.6617 24.5975L7.67093 24.6114L7.68107 24.6247L8.25558 25.3762L8.26471 25.3882L8.27453 25.3995L8.89602 26.1186L8.90702 26.1313L8.91885 26.1433L9.58731 26.819L9.5982 26.83L9.60975 26.8403L10.3151 27.4701L10.318 27.4726L10.8409 27.9468L11.3055 28.4487L11.7234 28.9923L12.0931 29.5654L12.4089 30.1768L12.6744 30.8098L12.8814 31.4612L13.0309 32.1307L13.1224 32.8087L13.15 33.505V35.1536V35.6536H13.65H22.8964H23.3964V35.1536V30.4337L23.4205 29.82L23.4917 29.2197L23.6108 28.6243L23.7706 28.0428L23.9778 27.4722L24.23 26.9126L24.5112 26.3465L24.5155 26.338L24.5194 26.3294L24.7651 25.7838L24.7753 25.7611L24.7832 25.7375L24.9747 25.1666L24.9821 25.1444L24.9875 25.1217L25.1248 24.5364L25.13 24.5142L25.1331 24.4916L25.2162 23.8991L25.2194 23.8765L25.2205 23.8537L25.2494 23.2539L25.25 23.2419V23.2298V18.2435V17.8831L24.9081 17.7691L14.15 14.1831V5.55002V5.05002H13.65H11.8ZM4.02185 12.6211L3.41988 13.223C0.460953 9.9109 0.460953 4.88915 3.41988 1.57702L4.02185 2.179C1.39344 5.15752 1.39344 9.64253 4.02185 12.6211ZM21.4281 12.6211C24.0565 9.64253 24.0565 5.15752 21.4281 2.179L22.0301 1.57702C24.989 4.88915 24.989 9.9109 22.0301 13.223L21.4281 12.6211ZM6.64769 9.99522L6.04324 10.5997C4.51946 8.74378 4.51946 6.05627 6.04324 4.20039L6.64769 4.80483C5.45112 6.32341 5.45112 8.47664 6.64769 9.99522ZM18.8023 9.99522C19.9988 8.47664 19.9988 6.32341 18.8023 4.80483L19.4067 4.20039C20.9305 6.05627 20.9305 8.74378 19.4067 10.5997L18.8023 9.99522Z" fill="#222222" stroke="black"/>
<path d="M10.45 19.042V4.20002H15V13.2102V13.5707L15.342 13.6846L26.1 17.2671V23.22L26.0759 23.8335L26.0045 24.4315L25.8888 25.0271L25.7293 25.6073L25.5226 26.1766L25.2669 26.7364L24.9851 27.3035L24.98 27.3138L24.9754 27.3243L24.7333 27.8736L24.724 27.8945L24.7168 27.9162L24.5253 28.4871L24.518 28.5089L24.5127 28.5313L24.3754 29.113L24.3703 29.1343L24.3672 29.1559L24.2805 29.7521L24.2768 29.7774L24.2757 29.803L24.2504 30.4028L24.25 30.4133V30.4239V36.5H12.3V33.4951V33.4822L12.2993 33.4693L12.2668 32.8406L12.2656 32.8177L12.2623 32.7949L12.172 32.1698L12.1684 32.145L12.1624 32.1207L12.0106 31.5101L12.0048 31.4867L11.9968 31.464L11.7872 30.8714L11.7792 30.8488L11.7691 30.8271L11.5017 30.2526L11.4912 30.23L11.4784 30.2085L11.1568 29.6665L11.1442 29.6452L11.1296 29.6253L10.7574 29.1194L10.7428 29.0996L10.7263 29.0813L10.3036 28.6115L10.288 28.5942L10.2708 28.5784L9.80832 28.152L9.8084 28.1519L9.80011 28.1446L9.07837 27.5082L8.40901 26.8389L7.77387 26.13L7.18524 25.3907L6.63872 24.613L6.1415 23.8076L5.69271 22.9697L5.293 22.1141L4.94238 21.2271L4.64462 20.3303L4.47247 19.6766L7.17499 16.9741L9.59643 19.3956L10.45 20.2491V19.042ZM11.8 5.05002H11.3V5.55002V22.3009L7.52854 18.5295L7.17499 18.1759L6.82143 18.5295L5.62544 19.7255L5.40397 19.9469L5.50659 20.2428L5.81733 21.1389L5.82225 21.1531L5.82802 21.167L6.19297 22.0451L6.19901 22.0596L6.20595 22.0737L6.62509 22.9264L6.6328 22.9421L6.64158 22.9572L7.11853 23.7774L7.12597 23.7902L7.13416 23.8026L7.6617 24.5975L7.67093 24.6114L7.68107 24.6247L8.25558 25.3762L8.26471 25.3882L8.27453 25.3995L8.89602 26.1186L8.90702 26.1313L8.91885 26.1433L9.58731 26.819L9.5982 26.83L9.60975 26.8403L10.3151 27.4701L10.318 27.4726L10.8409 27.9468L11.3055 28.4487L11.7234 28.9923L12.0931 29.5654L12.4089 30.1768L12.6744 30.8098L12.8814 31.4612L13.0309 32.1307L13.1224 32.8087L13.15 33.505V35.1536V35.6536H13.65H22.8964H23.3964V35.1536V30.4337L23.4205 29.82L23.4917 29.2197L23.6108 28.6243L23.7706 28.0428L23.9778 27.4722L24.23 26.9126L24.5112 26.3465L24.5155 26.338L24.5194 26.3294L24.7651 25.7838L24.7753 25.7611L24.7832 25.7375L24.9747 25.1666L24.9821 25.1444L24.9875 25.1217L25.1248 24.5364L25.13 24.5142L25.1331 24.4916L25.2162 23.8991L25.2194 23.8765L25.2205 23.8537L25.2494 23.2539L25.25 23.2419V23.2298V18.2435V17.8831L24.9081 17.7691L14.15 14.1831V5.55002V5.05002H13.65H11.8ZM4.02185 12.6211L3.41988 13.223C0.460953 9.9109 0.460953 4.88915 3.41988 1.57702L4.02185 2.179C1.39344 5.15752 1.39344 9.64253 4.02185 12.6211ZM21.4281 12.6211C24.0565 9.64253 24.0565 5.15752 21.4281 2.179L22.0301 1.57702C24.989 4.88915 24.989 9.9109 22.0301 13.223L21.4281 12.6211ZM6.64769 9.99522L6.04324 10.5997C4.51946 8.74378 4.51946 6.05627 6.04324 4.20039L6.64769 4.80483C5.45112 6.32341 5.45112 8.47664 6.64769 9.99522ZM18.8023 9.99522C19.9988 8.47664 19.9988 6.32341 18.8023 4.80483L19.4067 4.20039C20.9305 6.05627 20.9305 8.74378 19.4067 10.5997L18.8023 9.99522Z" fill="#222222" stroke="black"/>
<path d="M10.45 19.042V4.20002H15V13.2102V13.5707L15.342 13.6846L26.1 17.2671V23.22L26.0759 23.8335L26.0045 24.4315L25.8888 25.0271L25.7293 25.6073L25.5226 26.1766L25.2669 26.7364L24.9851 27.3035L24.98 27.3138L24.9754 27.3243L24.7333 27.8736L24.724 27.8945L24.7168 27.9162L24.5253 28.4871L24.518 28.5089L24.5127 28.5313L24.3754 29.113L24.3703 29.1343L24.3672 29.1559L24.2805 29.7521L24.2768 29.7774L24.2757 29.803L24.2504 30.4028L24.25 30.4133V30.4239V36.5H12.3V33.4951V33.4822L12.2993 33.4693L12.2668 32.8406L12.2656 32.8177L12.2623 32.7949L12.172 32.1698L12.1684 32.145L12.1624 32.1207L12.0106 31.5101L12.0048 31.4867L11.9968 31.464L11.7872 30.8714L11.7792 30.8488L11.7691 30.8271L11.5017 30.2526L11.4912 30.23L11.4784 30.2085L11.1568 29.6665L11.1442 29.6452L11.1296 29.6253L10.7574 29.1194L10.7428 29.0996L10.7263 29.0813L10.3036 28.6115L10.288 28.5942L10.2708 28.5784L9.80832 28.152L9.8084 28.1519L9.80011 28.1446L9.07837 27.5082L8.40901 26.8389L7.77387 26.13L7.18524 25.3907L6.63872 24.613L6.1415 23.8076L5.69271 22.9697L5.293 22.1141L4.94238 21.2271L4.64462 20.3303L4.47247 19.6766L7.17499 16.9741L9.59643 19.3956L10.45 20.2491V19.042ZM11.8 5.05002H11.3V5.55002V22.3009L7.52854 18.5295L7.17499 18.1759L6.82143 18.5295L5.62544 19.7255L5.40397 19.9469L5.50659 20.2428L5.81733 21.1389L5.82225 21.1531L5.82802 21.167L6.19297 22.0451L6.19901 22.0596L6.20595 22.0737L6.62509 22.9264L6.6328 22.9421L6.64158 22.9572L7.11853 23.7774L7.12597 23.7902L7.13416 23.8026L7.6617 24.5975L7.67093 24.6114L7.68107 24.6247L8.25558 25.3762L8.26471 25.3882L8.27453 25.3995L8.89602 26.1186L8.90702 26.1313L8.91885 26.1433L9.58731 26.819L9.5982 26.83L9.60975 26.8403L10.3151 27.4701L10.318 27.4726L10.8409 27.9468L11.3055 28.4487L11.7234 28.9923L12.0931 29.5654L12.4089 30.1768L12.6744 30.8098L12.8814 31.4612L13.0309 32.1307L13.1224 32.8087L13.15 33.505V35.1536V35.6536H13.65H22.8964H23.3964V35.1536V30.4337L23.4205 29.82L23.4917 29.2197L23.6108 28.6243L23.7706 28.0428L23.9778 27.4722L24.23 26.9126L24.5112 26.3465L24.5155 26.338L24.5194 26.3294L24.7651 25.7838L24.7753 25.7611L24.7832 25.7375L24.9747 25.1666L24.9821 25.1444L24.9875 25.1217L25.1248 24.5364L25.13 24.5142L25.1331 24.4916L25.2162 23.8991L25.2194 23.8765L25.2205 23.8537L25.2494 23.2539L25.25 23.2419V23.2298V18.2435V17.8831L24.9081 17.7691L14.15 14.1831V5.55002V5.05002H13.65H11.8ZM4.02185 12.6211L3.41988 13.223C0.460953 9.9109 0.460953 4.88915 3.41988 1.57702L4.02185 2.179C1.39344 5.15752 1.39344 9.64253 4.02185 12.6211ZM21.4281 12.6211C24.0565 9.64253 24.0565 5.15752 21.4281 2.179L22.0301 1.57702C24.989 4.88915 24.989 9.9109 22.0301 13.223L21.4281 12.6211ZM6.64769 9.99522L6.04324 10.5997C4.51946 8.74378 4.51946 6.05627 6.04324 4.20039L6.64769 4.80483C5.45112 6.32341 5.45112 8.47664 6.64769 9.99522ZM18.8023 9.99522C19.9988 8.47664 19.9988 6.32341 18.8023 4.80483L19.4067 4.20039C20.9305 6.05627 20.9305 8.74378 19.4067 10.5997L18.8023 9.99522Z" fill="#222222" stroke="black"/>
</svg>
