<svg width="37" height="37" viewBox="0 0 37 37" fill="none" xmlns="http://www.w3.org/2000/svg">
<g clip-path="url(#clip0_7_305)">
<path d="M6.40995 0.859985C2.7976 4.47234 2.7976 10.3277 6.40995 13.9401L7.71795 12.6321C4.82808 9.74218 4.82808 5.05787 7.71795 2.16799L6.40995 0.859985ZM25.04 0.859985L23.732 2.16799C26.6219 5.05787 26.6219 9.74218 23.732 12.6321L25.04 13.9401C28.6524 10.3277 28.6524 4.47234 25.04 0.859985ZM9.02596 3.476C6.85855 5.64341 6.85855 9.15664 9.02596 11.324L10.334 10.016C8.88903 8.5711 8.88903 6.22895 10.334 4.78401L9.02596 3.476ZM22.424 3.476L21.116 4.78401C22.5609 6.22895 22.5609 8.5711 21.116 10.016L22.424 11.324C24.5914 9.15664 24.5914 5.64341 22.424 3.476ZM12.95 3.70002V19.042L10.175 16.267L6.91581 19.5262L7.16512 20.4729L7.47225 21.3979L7.83358 22.312L8.24549 23.1937L8.70799 24.0573L9.22108 24.8883L9.78475 25.6905L10.3918 26.4529L11.0458 27.1827L11.7359 27.8729L12.4694 28.5197L12.9319 28.946L13.3547 29.4157L13.7268 29.9216L14.0484 30.4636L14.3158 31.0381L14.5254 31.6307L14.6771 32.2413L14.7675 32.8664L14.8 33.4951V37H27.75V30.4239L27.7753 29.8241L27.862 29.2279L27.9993 28.6461L28.1908 28.0752L28.4329 27.526L28.7183 26.9515L28.9857 26.3661L29.2061 25.7591L29.376 25.1412L29.4988 24.5089L29.5747 23.873L29.6 23.2298V16.9066L18.5 13.2102V3.70002H12.95ZM14.8 5.55002H16.65V14.5435L27.75 18.2435V23.2298L27.7211 23.8296L27.638 24.4222L27.5007 25.0075L27.3092 25.5784L27.0635 26.124L26.778 26.6986L26.5142 27.2839L26.2938 27.8909L26.124 28.5088L25.9975 29.1411L25.9217 29.7807L25.8964 30.4239V35.1536H16.65V33.4951L16.6211 32.7653L16.5235 32.0426L16.3645 31.3308L16.1441 30.637L15.8623 29.965L15.5263 29.3146L15.1324 28.7039L14.688 28.1258L14.193 27.591L13.651 27.0996L12.9428 26.4673L12.2743 25.7916L11.6528 25.0726L11.0783 24.321L10.5508 23.5261L10.0738 22.7059L9.65467 21.8532L9.28973 20.9751L8.97899 20.079L10.175 18.883L14.8 23.508V5.55002Z" fill="#222222"/>
</g>
<defs>
<clipPath id="clip0_7_305">
<rect width="37" height="37" fill="white"/>
</clipPath>
</defs>
</svg>
