<svg width="37" height="37" viewBox="0 0 37 37" fill="none" xmlns="http://www.w3.org/2000/svg">
<g clip-path="url(#clip0_7_292)">
<g clip-path="url(#clip1_7_292)">
<path d="M33.3621 0.120728H3.63804C-2.22785 0.120728 -7 4.89288 -7 10.7588V40.2415C-7 46.1074 -2.22785 50.8795 3.63804 50.8795H33.3621C39.2279 50.8795 44.0001 46.1074 44.0001 40.2415V10.7588C44 4.89288 39.2279 0.120728 33.3621 0.120728ZM40.1031 40.2413C40.1031 43.9585 37.0791 46.9825 33.362 46.9825H3.63804C-0.0790906 46.9825 -3.10309 43.9585 -3.10309 40.2413V10.7588C-3.10309 7.04164 -0.0790906 4.01764 3.63804 4.01764H33.3621C37.0791 4.01764 40.1032 7.04164 40.1032 10.7588V40.2413H40.1031Z" fill="black"/>
<path d="M33.522 19.1901H15.756C15.0386 19.1901 14.457 19.7716 14.457 20.489C14.457 21.2065 15.0386 21.788 15.756 21.788H33.5221C34.2396 21.788 34.8211 21.2065 34.8211 20.489C34.8211 19.7716 34.2394 19.1901 33.522 19.1901Z" fill="black"/>
<path d="M33.522 31.087H3.47799C2.76056 31.087 2.17902 31.6686 2.17902 32.386C2.17902 33.1034 2.76056 33.685 3.47799 33.685H33.522C34.2394 33.685 34.8209 33.1034 34.8209 32.386C34.8209 31.6686 34.2394 31.087 33.522 31.087Z" fill="black"/>
<path d="M33.522 13.2411H15.756C15.0386 13.2411 14.457 13.8226 14.457 14.5401C14.457 15.2575 15.0386 15.839 15.756 15.839H33.5221C34.2396 15.839 34.8211 15.2575 34.8211 14.5401C34.8211 13.8226 34.2394 13.2411 33.522 13.2411Z" fill="black"/>
<path d="M33.522 25.1378H3.47799C2.76056 25.1378 2.17902 25.7194 2.17902 26.4368C2.17902 27.1542 2.76056 27.7358 3.47799 27.7358H33.522C34.2394 27.7358 34.8209 27.1542 34.8209 26.4368C34.8209 25.7194 34.2394 25.1378 33.522 25.1378Z" fill="black"/>
<path d="M6.24076 19.7822H10.6197V21.9068H13.2177V13.2411H3.64282V21.9068H6.24076V19.7822ZM10.6197 15.839V17.1842H6.24076V15.839H10.6197Z" fill="black"/>
</g>
</g>
<defs>
<clipPath id="clip0_7_292">
<rect width="37" height="37" fill="white"/>
</clipPath>
<clipPath id="clip1_7_292">
<rect width="51" height="51" fill="white" transform="translate(-7)"/>
</clipPath>
</defs>
</svg>
