<svg width="271" height="117" viewBox="0 0 271 117" fill="none" xmlns="http://www.w3.org/2000/svg">
<g filter="url(#filter0_d_21_145)">
<rect x="4" width="263" height="108.333" rx="5" fill="white"/>
<rect x="4.5" y="0.5" width="262" height="107.333" rx="4.5" stroke="#FDD5DF"/>
</g>
<rect x="18.3572" y="8.48386" width="234.285" height="89.4069" rx="5" fill="#FDD5DF"/>
<path d="M197.017 11.3614C192.045 11.3614 188 15.6729 188 20.9727C188 26.2718 192.045 30.5836 197.017 30.5836C201.989 30.5836 206.035 26.2716 206.035 20.9727C206.035 15.6729 201.989 11.3614 197.017 11.3614ZM197.017 29.6227C192.543 29.6227 188.902 25.7416 188.902 20.9727C188.902 16.2036 192.543 12.3225 197.017 12.3225C201.492 12.3225 205.133 16.2034 205.133 20.9727C205.133 25.7416 201.492 29.6227 197.017 29.6227ZM202.799 22.0641C202.713 21.9486 202.583 21.8812 202.444 21.8812H191.59C191.452 21.8812 191.321 21.9488 191.235 22.0641C191.15 22.1795 191.119 22.3306 191.151 22.4742C191.801 25.3783 194.214 27.4074 197.016 27.4074C199.818 27.4074 202.229 25.3804 202.882 22.4742C202.916 22.3306 202.884 22.1795 202.799 22.0641ZM197.017 26.4464C194.829 26.4464 192.921 24.9917 192.194 22.8421H201.84C201.112 24.9917 199.204 26.4464 197.017 26.4464ZM193.106 17.5982C193.106 16.9399 193.608 16.4073 194.224 16.4073C194.84 16.4073 195.34 16.9399 195.34 17.5982C195.34 18.2554 194.839 18.7888 194.224 18.7888C193.608 18.789 193.106 18.2554 193.106 17.5982ZM198.694 17.5982C198.694 16.9399 199.194 16.4073 199.811 16.4073C200.426 16.4073 200.927 16.9399 200.927 17.5982C200.927 18.2554 200.423 18.7888 199.811 18.7888C199.194 18.789 198.694 18.2554 198.694 17.5982Z" fill="#1B0909"/>
<path d="M215.355 24.07V25H210.27V24.07H212.4V17.65C212.32 17.77 212.185 17.9 211.995 18.04C211.805 18.18 211.585 18.31 211.335 18.43C211.095 18.55 210.855 18.65 210.615 18.73C210.375 18.81 210.155 18.85 209.955 18.85V17.86C210.185 17.86 210.435 17.795 210.705 17.665C210.975 17.535 211.235 17.385 211.485 17.215C211.735 17.045 211.945 16.885 212.115 16.735C212.285 16.585 212.38 16.485 212.4 16.435H213.45V24.07H215.355ZM224.036 20.605C224.036 21.485 223.871 22.27 223.541 22.96C223.221 23.64 222.776 24.175 222.206 24.565C221.636 24.955 220.991 25.15 220.271 25.15C219.551 25.15 218.906 24.955 218.336 24.565C217.776 24.175 217.331 23.64 217.001 22.96C216.671 22.27 216.506 21.485 216.506 20.605C216.506 19.725 216.671 18.945 217.001 18.265C217.331 17.575 217.776 17.035 218.336 16.645C218.906 16.245 219.551 16.045 220.271 16.045C220.991 16.045 221.636 16.245 222.206 16.645C222.776 17.035 223.221 17.575 223.541 18.265C223.871 18.945 224.036 19.725 224.036 20.605ZM223.001 20.605C223.001 19.895 222.886 19.27 222.656 18.73C222.426 18.19 222.106 17.77 221.696 17.47C221.286 17.16 220.811 17.005 220.271 17.005C219.731 17.005 219.256 17.16 218.846 17.47C218.436 17.77 218.111 18.19 217.871 18.73C217.641 19.27 217.526 19.895 217.526 20.605C217.526 21.315 217.641 21.94 217.871 22.48C218.111 23.02 218.436 23.44 218.846 23.74C219.256 24.04 219.731 24.19 220.271 24.19C220.811 24.19 221.286 24.04 221.696 23.74C222.106 23.43 222.426 23.01 222.656 22.48C222.886 21.94 223.001 21.315 223.001 20.605ZM233.221 20.605C233.221 21.485 233.056 22.27 232.726 22.96C232.406 23.64 231.961 24.175 231.391 24.565C230.821 24.955 230.176 25.15 229.456 25.15C228.736 25.15 228.091 24.955 227.521 24.565C226.961 24.175 226.516 23.64 226.186 22.96C225.856 22.27 225.691 21.485 225.691 20.605C225.691 19.725 225.856 18.945 226.186 18.265C226.516 17.575 226.961 17.035 227.521 16.645C228.091 16.245 228.736 16.045 229.456 16.045C230.176 16.045 230.821 16.245 231.391 16.645C231.961 17.035 232.406 17.575 232.726 18.265C233.056 18.945 233.221 19.725 233.221 20.605ZM232.186 20.605C232.186 19.895 232.071 19.27 231.841 18.73C231.611 18.19 231.291 17.77 230.881 17.47C230.471 17.16 229.996 17.005 229.456 17.005C228.916 17.005 228.441 17.16 228.031 17.47C227.621 17.77 227.296 18.19 227.056 18.73C226.826 19.27 226.711 19.895 226.711 20.605C226.711 21.315 226.826 21.94 227.056 22.48C227.296 23.02 227.621 23.44 228.031 23.74C228.441 24.04 228.916 24.19 229.456 24.19C229.996 24.19 230.471 24.04 230.881 23.74C231.291 23.43 231.611 23.01 231.841 22.48C232.071 21.94 232.186 21.315 232.186 20.605ZM236.9 18.505C236.49 18.505 236.115 18.41 235.775 18.22C235.435 18.03 235.16 17.77 234.95 17.44C234.75 17.11 234.65 16.75 234.65 16.36C234.65 15.96 234.75 15.595 234.95 15.265C235.16 14.935 235.435 14.675 235.775 14.485C236.115 14.295 236.49 14.2 236.9 14.2C237.31 14.2 237.685 14.295 238.025 14.485C238.365 14.675 238.635 14.935 238.835 15.265C239.035 15.595 239.135 15.955 239.135 16.345C239.135 16.745 239.035 17.11 238.835 17.44C238.635 17.77 238.365 18.03 238.025 18.22C237.685 18.41 237.31 18.505 236.9 18.505ZM236.9 17.92C237.17 17.92 237.415 17.85 237.635 17.71C237.865 17.56 238.045 17.365 238.175 17.125C238.305 16.885 238.37 16.63 238.37 16.36C238.37 16.07 238.3 15.805 238.16 15.565C238.02 15.325 237.835 15.14 237.605 15.01C237.385 14.87 237.15 14.8 236.9 14.8C236.62 14.8 236.37 14.875 236.15 15.025C235.93 15.165 235.75 15.355 235.61 15.595C235.48 15.825 235.415 16.075 235.415 16.345C235.415 16.635 235.48 16.9 235.61 17.14C235.75 17.37 235.93 17.56 236.15 17.71C236.38 17.85 236.63 17.92 236.9 17.92ZM241.925 25.15C241.515 25.15 241.14 25.055 240.8 24.865C240.46 24.675 240.19 24.415 239.99 24.085C239.79 23.755 239.69 23.39 239.69 22.99C239.69 22.59 239.79 22.23 239.99 21.91C240.19 21.58 240.46 21.32 240.8 21.13C241.14 20.94 241.515 20.845 241.925 20.845C242.345 20.845 242.725 20.94 243.065 21.13C243.405 21.32 243.675 21.58 243.875 21.91C244.075 22.23 244.175 22.59 244.175 22.99C244.175 23.39 244.075 23.755 243.875 24.085C243.675 24.405 243.405 24.665 243.065 24.865C242.725 25.055 242.345 25.15 241.925 25.15ZM241.925 24.55C242.205 24.55 242.455 24.48 242.675 24.34C242.905 24.19 243.08 24 243.2 23.77C243.33 23.53 243.395 23.275 243.395 23.005C243.395 22.715 243.325 22.45 243.185 22.21C243.055 21.97 242.875 21.78 242.645 21.64C242.425 21.5 242.185 21.43 241.925 21.43C241.655 21.43 241.405 21.505 241.175 21.655C240.955 21.795 240.78 21.985 240.65 22.225C240.52 22.465 240.455 22.72 240.455 22.99C240.455 23.28 240.52 23.545 240.65 23.785C240.79 24.015 240.97 24.2 241.19 24.34C241.42 24.48 241.665 24.55 241.925 24.55ZM235.01 24.595L239.21 19.495L243.275 14.29L243.8 14.74L239.63 19.84L235.535 25.06L235.01 24.595Z" fill="#1B0909"/>
<path d="M77.1868 49.9393C88.2469 27.9134 101.485 40.7618 106.722 49.9393" stroke="#FE830C"/>
<path d="M106.722 49.3601C117.783 27.3342 131.021 40.1827 136.258 49.3601" stroke="#F9C201"/>
<path d="M136.258 49.3601C147.318 27.3342 160.557 40.1827 165.793 49.3601" stroke="#91C477"/>
<path d="M164.988 49.9393C176.048 27.9134 189.286 40.7618 194.523 49.9393" stroke="#AABFFE"/>
<path d="M194.523 49.9393C205.8 27.9134 219.299 40.7618 224.638 49.9393" stroke="#C789D6"/>
<path d="M47.6514 49.9393C58.7115 27.9134 71.9501 40.7618 77.1869 49.9393" stroke="#FC3941"/>
<path d="M76.6072 63.2592C87.6673 41.2333 100.906 54.0817 106.143 63.2592" stroke="#FE830C"/>
<path d="M106.143 62.6801C117.203 40.6541 130.442 53.5026 135.678 62.6801" stroke="#F9C201"/>
<path d="M135.678 62.6801C146.738 40.6541 159.977 53.5026 165.214 62.6801" stroke="#91C477"/>
<path d="M164.408 63.2592C175.468 41.2333 188.707 54.0817 193.944 63.2592" stroke="#AABFFE"/>
<path d="M193.944 63.2592C205.221 41.2333 218.719 54.0817 224.058 63.2592" stroke="#C789D6"/>
<path d="M47.0718 63.2592C58.1319 41.2333 71.3705 54.0817 76.6073 63.2592" stroke="#FC3941"/>
<path d="M76.6072 76C87.6673 53.974 100.906 66.8225 106.143 76" stroke="#FE830C"/>
<path d="M106.143 75.4209C117.203 53.3949 130.442 66.2434 135.678 75.4209" stroke="#F9C201"/>
<path d="M135.678 75.4209C146.738 53.3949 159.977 66.2434 165.214 75.4209" stroke="#91C477"/>
<path d="M164.408 76C175.468 53.974 188.707 66.8225 193.944 76" stroke="#AABFFE"/>
<path d="M193.944 76C205.221 53.974 218.719 66.8225 224.058 76" stroke="#C789D6"/>
<path d="M47.0718 76C58.1319 53.974 71.3705 66.8225 76.6073 76" stroke="#FC3941"/>
<defs>
<filter id="filter0_d_21_145" x="0" y="0" width="271" height="116.333" filterUnits="userSpaceOnUse" color-interpolation-filters="sRGB">
<feFlood flood-opacity="0" result="BackgroundImageFix"/>
<feColorMatrix in="SourceAlpha" type="matrix" values="0 0 0 0 0 0 0 0 0 0 0 0 0 0 0 0 0 0 127 0" result="hardAlpha"/>
<feOffset dy="4"/>
<feGaussianBlur stdDeviation="2"/>
<feComposite in2="hardAlpha" operator="out"/>
<feColorMatrix type="matrix" values="0 0 0 0 0 0 0 0 0 0 0 0 0 0 0 0 0 0 0.25 0"/>
<feBlend mode="normal" in2="BackgroundImageFix" result="effect1_dropShadow_21_145"/>
<feBlend mode="normal" in="SourceGraphic" in2="effect1_dropShadow_21_145" result="shape"/>
</filter>
</defs>
</svg>
